# Blender 4.3.2
# www.blender.org
mtllib level02.mtl
o Plane_-col
v -50.000000 0.000000 50.000000
v 50.000000 0.000000 50.000000
v -50.000000 0.000000 -50.000000
v 50.000000 0.000000 -50.000000
vn -0.0000 1.0000 -0.0000
vt 0.000000 0.000000
vt 1.000000 0.000000
vt 1.000000 1.000000
vt 0.000000 1.000000
s 0
usemtl Material.003
f 1/1/1 2/2/1 4/3/1 3/4/1
o Cube_-col
v -50.000000 -5.000000 -40.000000
v -50.000000 5.000000 -40.000000
v -50.000000 -5.000000 -50.000000
v -50.000000 5.000000 -50.000000
v -40.000000 -5.000000 -40.000000
v -40.000000 5.000000 -40.000000
v -40.000000 -5.000000 -50.000000
v -40.000000 5.000000 -50.000000
v -30.000000 -5.000000 -40.000000
v -30.000000 5.000000 -40.000000
v -30.000000 -5.000000 -50.000000
v -30.000000 5.000000 -50.000000
v -20.000000 -5.000000 -40.000000
v -20.000000 5.000000 -40.000000
v -20.000000 -5.000000 -50.000000
v -20.000000 5.000000 -50.000000
v -10.000000 -5.000000 -40.000000
v -10.000000 5.000000 -40.000000
v -10.000000 -5.000000 -50.000000
v -10.000000 5.000000 -50.000000
v -50.000000 -5.000000 -30.000000
v -50.000000 5.000000 -30.000000
v -40.000000 -5.000000 -30.000000
v -40.000000 5.000000 -30.000000
v -50.000000 -5.000000 -20.000000
v -50.000000 5.000000 -20.000000
v -40.000000 -5.000000 -20.000000
v -40.000000 5.000000 -20.000000
v -50.000000 -5.000000 -10.000000
v -50.000000 5.000000 -10.000000
v -40.000000 -5.000000 -10.000000
v -40.000000 5.000000 -10.000000
vn -1.0000 -0.0000 -0.0000
vn -0.0000 -0.0000 -1.0000
vn -0.0000 -0.0000 1.0000
vn 1.0000 -0.0000 -0.0000
vn -0.0000 -1.0000 -0.0000
vn -0.0000 1.0000 -0.0000
vt 0.375000 0.000000
vt 0.625000 0.000000
vt 0.625000 0.250000
vt 0.375000 0.250000
vt 0.625000 0.500000
vt 0.375000 0.500000
vt 0.625000 0.750000
vt 0.375000 0.750000
vt 0.125000 0.500000
vt 0.125000 0.750000
vt 0.875000 0.500000
vt 0.875000 0.750000
vt 0.625000 1.000000
vt 0.375000 1.000000
s 0
usemtl Material
f 5/5/2 6/6/2 8/7/2 7/8/2
f 7/8/3 8/7/3 12/9/3 11/10/3
f 10/11/4 9/12/4 13/12/4 14/11/4
f 9/12/5 10/11/5 28/11/5 27/12/5
f 7/13/6 11/10/6 9/12/6 5/14/6
f 12/9/7 8/15/7 6/16/7 10/11/7
f 16/9/7 14/11/7 18/11/7 20/9/7
f 9/12/6 11/10/6 15/10/6 13/12/6
f 12/9/7 10/11/7 14/11/7 16/9/7
f 11/10/3 12/9/3 16/9/3 15/10/3
f 19/10/3 20/9/3 24/9/3 23/10/3
f 15/10/3 16/9/3 20/9/3 19/10/3
f 14/11/4 13/12/4 17/12/4 18/11/4
f 13/12/6 15/10/6 19/10/6 17/12/6
f 23/10/5 24/9/5 22/11/5 21/12/5
f 18/11/4 17/12/4 21/12/4 22/11/4
f 17/12/6 19/10/6 23/10/6 21/12/6
f 20/9/7 18/11/7 22/11/7 24/9/7
f 25/14/6 27/12/6 31/12/6 29/14/6
f 6/6/2 5/5/2 25/5/2 26/6/2
f 5/14/6 9/12/6 27/12/6 25/14/6
f 10/11/7 6/16/7 26/16/7 28/11/7
f 32/11/7 30/16/7 34/16/7 36/11/7
f 26/6/2 25/5/2 29/5/2 30/6/2
f 28/11/7 26/16/7 30/16/7 32/11/7
f 27/12/5 28/11/5 32/11/5 31/12/5
f 35/12/4 36/11/4 34/17/4 33/18/4
f 31/12/5 32/11/5 36/11/5 35/12/5
f 29/14/6 31/12/6 35/12/6 33/14/6
f 30/6/2 29/5/2 33/5/2 34/6/2
o Cube.001_-col
v 50.000000 -5.000000 40.000000
v 50.000000 5.000000 40.000000
v 50.000000 -5.000000 50.000000
v 50.000000 5.000000 50.000000
v 40.000000 -5.000000 40.000000
v 40.000000 5.000000 40.000000
v 40.000000 -5.000000 50.000000
v 40.000000 5.000000 50.000000
v 30.000000 -5.000000 40.000004
v 30.000000 5.000000 40.000004
v 30.000000 -5.000000 50.000004
v 30.000000 5.000000 50.000004
v 20.000000 -5.000000 40.000004
v 20.000000 5.000000 40.000004
v 20.000000 -5.000000 50.000004
v 20.000000 5.000000 50.000004
v 10.000000 -5.000000 40.000004
v 10.000000 5.000000 40.000004
v 10.000000 -5.000000 50.000004
v 10.000000 5.000000 50.000004
v 49.999996 -5.000000 30.000000
v 49.999996 5.000000 30.000000
v 39.999996 -5.000000 30.000000
v 39.999996 5.000000 30.000000
v 49.999996 -5.000000 20.000000
v 49.999996 5.000000 20.000000
v 39.999996 -5.000000 20.000000
v 39.999996 5.000000 20.000000
v 49.999996 -5.000000 10.000000
v 49.999996 5.000000 10.000000
v 39.999996 -5.000000 10.000000
v 39.999996 5.000000 10.000000
vn 1.0000 -0.0000 -0.0000
vn -0.0000 -0.0000 1.0000
vn -0.0000 -0.0000 -1.0000
vn -1.0000 -0.0000 -0.0000
vn -0.0000 -1.0000 -0.0000
vn -0.0000 1.0000 -0.0000
vt 0.375000 0.000000
vt 0.625000 0.000000
vt 0.625000 0.250000
vt 0.375000 0.250000
vt 0.625000 0.500000
vt 0.375000 0.500000
vt 0.625000 0.750000
vt 0.375000 0.750000
vt 0.125000 0.500000
vt 0.125000 0.750000
vt 0.875000 0.500000
vt 0.875000 0.750000
vt 0.625000 1.000000
vt 0.375000 1.000000
s 0
usemtl Material.002
f 37/19/8 38/20/8 40/21/8 39/22/8
f 39/22/9 40/21/9 44/23/9 43/24/9
f 42/25/10 41/26/10 45/26/10 46/25/10
f 41/26/11 42/25/11 60/25/11 59/26/11
f 39/27/12 43/24/12 41/26/12 37/28/12
f 44/23/13 40/29/13 38/30/13 42/25/13
f 48/23/13 46/25/13 50/25/13 52/23/13
f 41/26/12 43/24/12 47/24/12 45/26/12
f 44/23/13 42/25/13 46/25/13 48/23/13
f 43/24/9 44/23/9 48/23/9 47/24/9
f 51/24/9 52/23/9 56/23/9 55/24/9
f 47/24/9 48/23/9 52/23/9 51/24/9
f 46/25/10 45/26/10 49/26/10 50/25/10
f 45/26/12 47/24/12 51/24/12 49/26/12
f 55/24/11 56/23/11 54/25/11 53/26/11
f 50/25/10 49/26/10 53/26/10 54/25/10
f 49/26/12 51/24/12 55/24/12 53/26/12
f 52/23/13 50/25/13 54/25/13 56/23/13
f 57/28/12 59/26/12 63/26/12 61/28/12
f 38/20/8 37/19/8 57/19/8 58/20/8
f 37/28/12 41/26/12 59/26/12 57/28/12
f 42/25/13 38/30/13 58/30/13 60/25/13
f 64/25/13 62/30/13 66/30/13 68/25/13
f 58/20/8 57/19/8 61/19/8 62/20/8
f 60/25/13 58/30/13 62/30/13 64/25/13
f 59/26/11 60/25/11 64/25/11 63/26/11
f 67/26/10 68/25/10 66/31/10 65/32/10
f 63/26/11 64/25/11 68/25/11 67/26/11
f 61/28/12 63/26/12 67/26/12 65/28/12
f 62/20/8 61/19/8 65/19/8 66/20/8
o Plane_-navmesh
v -50.000000 1.000000 50.000000
v 50.000000 1.000000 50.000000
v -50.000000 1.000000 -50.000000
v 50.000000 1.000000 -50.000000
vn -0.0000 1.0000 -0.0000
vt 0.000000 0.000000
vt 1.000000 0.000000
vt 1.000000 1.000000
vt 0.000000 1.000000
s 0
usemtl Material.001
f 69/33/14 70/34/14 72/35/14 71/36/14
